# xmcd
#
# Track frame offsets: 
#        183
#        18933
#        34720
#        53645
#        69908
#        87608
#        106045
#        122145
#        139333
#        155395
#        171445
#        189408
#
# Disc length: 2743 seconds
#
# Revision: 11
# Processed by: cddbd v1.5.2PL0 Copyright (c) Steve Scherf et al.
# Submitted via: ExactAudioCopy v0.99pb4
#
DISCID=9a0ab50c
DTITLE=Howard Carpendale - Mit viel, viel Herz
DYEAR=1992
DGENRE=Deutsche Titel
TTITLE0=Mit viel, viel Herz
TTITLE1=Sorry
TTITLE2=Es weht ein neuer Wind
TTITLE3=Ohne Dich
TTITLE4=Dancing In The Mood
TTITLE5=Endlich mal Zeit
TTITLE6=Je weiter Du gehst
TTITLE7=Geh' heut Nacht nicht so früh schlafen
TTITLE8=Leider lieb ich Dich noch immer
TTITLE9=Are We Still Friends
TTITLE10=Durch den Winter
TTITLE11=Verdammt lange Tour
EXTD=YEAR - 1992
EXTT0=
EXTT1=
EXTT2=
EXTT3=
EXTT4=
EXTT5=
EXTT6=
EXTT7=
EXTT8=
EXTT9=
EXTT10=
EXTT11=
PLAYORDER=
